<?xml version="1.0" standalone="no"?>
<!DOCTYPE svg PUBLIC "-//W3C//DTD SVG 20010904//EN"
 "http://www.w3.org/TR/2001/REC-SVG-20010904/DTD/svg10.dtd">
<svg version="1.0" xmlns="http://www.w3.org/2000/svg"
 width="560.000000pt" height="560.000000pt" viewBox="0 0 560.000000 560.000000"
 preserveAspectRatio="xMidYMid meet">
<metadata>
Created by potrace 1.11, written by Peter Selinger 2001-2013
</metadata>
<g transform="translate(0.000000,560.000000) scale(0.100000,-0.100000)"
fill="#000000" stroke="none">
<path d="M4427 5386 c-46 -46 -44 -122 4 -159 22 -15 30 -17 48 -8 12 7 21 21
21 34 0 13 7 32 15 43 21 28 18 52 -10 79 -27 28 -57 32 -78 11z"/>
<path d="M2645 5330 c-169 -9 -225 -32 -225 -90 0 -45 -61 -90 -187 -141 -72
-29 -84 -31 -158 -25 -78 6 -82 5 -157 -33 -77 -39 -78 -39 -118 -24 -38 15
-42 15 -89 -9 -104 -55 -320 -207 -400 -283 -96 -92 -384 -400 -452 -483 -122
-152 -262 -391 -310 -531 -11 -30 -30 -115 -44 -188 -13 -73 -38 -190 -54
-260 -55 -236 -76 -480 -61 -704 6 -95 13 -175 15 -179 2 -3 9 -44 15 -90 24
-174 109 -468 197 -685 63 -153 69 -164 171 -319 184 -280 323 -436 444 -497
102 -51 246 -156 273 -199 14 -22 42 -51 62 -65 52 -35 154 -65 222 -65 60 0
77 -8 103 -51 21 -34 44 -42 228 -79 85 -17 227 -48 315 -70 195 -48 289 -60
465 -60 466 1 869 118 1370 397 181 101 299 196 458 366 50 53 57 57 96 56 57
-3 108 24 156 81 59 71 65 92 44 173 l-18 69 34 65 c36 68 71 110 130 154 37
28 40 39 59 244 6 59 17 109 34 145 42 94 78 236 102 410 8 52 21 140 29 195
24 150 22 539 -3 726 -22 159 -69 350 -101 401 -12 21 -20 51 -20 80 0 63 -14
97 -54 133 -19 17 -53 66 -76 110 -42 80 -66 120 -148 250 -67 105 -121 184
-170 245 -71 89 -217 232 -292 286 -38 27 -69 54 -70 61 0 16 -32 33 -92 49
-66 17 -130 56 -167 102 -89 113 -309 188 -766 261 -71 12 -179 33 -240 47
-124 30 -315 38 -550 24z m352 -295 c95 -4 136 -11 188 -30 36 -14 80 -25 98
-25 33 0 207 -54 242 -75 11 -7 58 -15 104 -19 97 -7 159 -31 239 -95 74 -59
92 -91 80 -142 -9 -35 -8 -44 16 -80 15 -22 46 -52 69 -67 23 -15 58 -39 77
-54 20 -15 55 -31 79 -37 46 -10 98 -52 132 -107 10 -17 39 -42 63 -54 36 -20
49 -22 77 -14 43 12 73 61 64 103 -10 45 -62 111 -100 127 -18 7 -36 18 -40
24 -10 17 15 50 38 50 32 0 270 -247 339 -352 67 -102 165 -292 213 -413 20
-49 51 -126 70 -170 43 -101 53 -156 60 -330 8 -165 14 -191 69 -269 l41 -59
8 -126 c4 -69 9 -142 9 -161 1 -19 -13 -90 -30 -157 -21 -79 -32 -145 -32
-189 0 -60 -4 -75 -34 -124 -19 -30 -39 -74 -45 -97 -6 -22 -21 -50 -34 -61
-121 -107 -128 -115 -136 -172 -9 -65 -23 -94 -56 -116 -18 -12 -25 -25 -25
-48 0 -22 -8 -40 -25 -56 -18 -17 -25 -34 -25 -63 0 -69 -105 -243 -231 -384
-21 -23 -41 -57 -44 -76 -6 -28 -30 -59 -113 -141 -157 -154 -144 -147 -264
-150 -123 -3 -204 -24 -273 -70 -28 -18 -71 -44 -95 -56 -64 -33 -255 -97
-330 -111 -36 -6 -121 -25 -190 -41 -209 -49 -201 -49 -680 27 -52 8 -133 14
-180 13 -102 -4 -148 12 -156 51 -13 65 -25 75 -117 98 -48 11 -121 36 -162
54 -72 31 -76 32 -127 20 -49 -12 -58 -11 -122 14 -52 20 -79 37 -108 70 -27
31 -55 50 -90 62 -54 19 -188 133 -262 223 -101 122 -302 483 -391 700 -106
259 -163 501 -169 726 -5 161 -6 166 -48 235 l-28 46 15 108 c15 102 26 135
46 135 5 0 9 -8 9 -18 0 -33 24 -56 52 -49 31 8 34 15 58 135 12 55 34 119 55
160 29 56 35 79 35 128 0 146 79 318 252 549 104 139 157 191 313 304 87 64
123 100 136 138 8 26 8 37 -1 48 -19 23 -64 18 -90 -10 -13 -14 -33 -25 -44
-25 -17 0 -14 6 19 40 22 23 65 57 95 77 30 20 73 49 95 63 54 37 189 112 311
176 122 63 338 135 489 163 104 19 340 40 395 34 14 -1 80 -5 147 -8z m2053
-3117 c-1 -15 -24 -48 -34 -48 -11 0 -7 35 6 48 16 16 28 15 28 0z"/>
<path d="M2226 4912 c-2 -4 -1 -14 4 -22 7 -11 11 -11 24 -1 9 7 13 17 10 22
-7 11 -31 12 -38 1z"/>
<path d="M2070 4855 c-12 -15 -7 -45 8 -45 20 0 45 28 39 44 -8 20 -31 21 -47
1z"/>
<path d="M3560 4745 c0 -8 4 -15 10 -15 5 0 7 7 4 15 -4 8 -8 15 -10 15 -2 0
-4 -7 -4 -15z"/>
<path d="M1851 4739 c-71 -21 -142 -83 -126 -109 12 -20 42 -9 118 41 94 61
98 94 8 68z"/>
<path d="M4559 4179 c-27 -27 -18 -64 25 -104 18 -16 43 -49 55 -72 42 -83
103 -109 137 -58 22 33 12 56 -52 126 -30 32 -54 63 -54 67 0 18 -50 62 -70
62 -11 0 -29 -9 -41 -21z"/>
<path d="M3216 4143 c-38 -41 -51 -79 -38 -108 7 -14 18 -25 26 -25 21 0 97
132 84 148 -17 20 -45 14 -72 -15z"/>
<path d="M2967 4142 c-21 -23 -22 -52 -3 -52 19 0 46 38 39 56 -7 19 -17 18
-36 -4z"/>
<path d="M4460 4125 c-10 -13 -10 -19 5 -35 10 -11 24 -20 32 -20 22 0 27 29
8 50 -22 24 -29 25 -45 5z"/>
<path d="M3019 3897 c-13 -13 -49 -29 -79 -36 -124 -30 -269 -116 -350 -208
-55 -63 -100 -141 -100 -175 0 -36 32 -68 68 -68 36 0 53 14 87 75 101 177
360 288 567 244 82 -18 134 -44 189 -96 92 -86 132 -200 131 -373 0 -172 -51
-349 -166 -579 -205 -409 -489 -715 -736 -792 -118 -37 -313 -19 -427 40 -147
75 -183 243 -107 505 26 91 125 327 170 404 24 41 27 43 57 35 127 -32 302 36
343 134 32 74 8 161 -60 221 -52 46 -124 52 -207 18 -11 -5 -18 -1 -22 13 -11
45 -97 15 -97 -34 0 -14 5 -16 32 -11 l33 6 -50 -50 c-56 -57 -55 -57 -103 30
-28 49 -29 57 -16 74 8 11 14 31 14 44 0 13 16 46 35 72 45 62 49 118 9 149
-47 37 -78 27 -161 -50 -28 -27 -57 -49 -62 -49 -6 0 -11 -6 -11 -14 0 -7 -7
-19 -15 -26 -24 -20 -18 -56 24 -155 44 -102 88 -180 133 -237 l29 -37 -56
-112 c-130 -259 -192 -449 -202 -619 -9 -166 25 -269 121 -365 90 -90 223
-140 407 -152 218 -14 399 69 623 286 160 156 333 397 443 616 40 80 123 304
145 393 30 116 32 353 4 452 -70 253 -269 410 -520 410 -59 0 -76 3 -76 14 0
25 -17 26 -41 3z m-489 -797 c16 -30 -3 -56 -57 -74 -45 -15 -113 -22 -113
-11 0 16 38 59 69 81 44 30 86 31 101 4z"/>
<path d="M4804 3855 c-9 -22 23 -65 47 -65 27 0 34 25 15 55 -18 28 -53 33
-62 10z"/>
<path d="M2350 3760 c-35 -35 -19 -100 24 -100 31 0 56 30 56 66 0 54 -42 72
-80 34z"/>
<path d="M4895 3690 c-8 -14 3 -30 21 -30 8 0 14 9 14 20 0 21 -24 28 -35 10z"/>
<path d="M2970 3565 c-7 -9 -8 -15 -2 -15 5 0 12 7 16 15 3 8 4 15 2 15 -2 0
-9 -7 -16 -15z"/>
<path d="M4276 3280 c-9 -22 -11 -43 -6 -62 9 -30 2 -64 -25 -116 -29 -56 3
-121 66 -137 35 -9 85 34 99 83 32 118 -10 243 -87 258 -30 6 -34 4 -47 -26z"/>
<path d="M4086 3191 c-14 -15 -15 -24 -6 -40 14 -28 38 -26 52 3 21 48 -12 75
-46 37z"/>
<path d="M5040 3095 c-15 -18 -6 -45 14 -45 16 0 31 34 21 50 -9 14 -21 12
-35 -5z"/>
<path d="M680 2954 c-14 -35 -13 -49 5 -64 20 -17 41 -7 47 23 11 57 -33 92
-52 41z"/>
<path d="M5147 2913 c-3 -5 -10 -34 -16 -65 -14 -65 -4 -98 30 -98 34 0 54
103 29 151 -11 19 -35 26 -43 12z"/>
<path d="M5022 2789 c2 -6 8 -10 13 -10 5 0 11 4 13 10 2 6 -4 11 -13 11 -9 0
-15 -5 -13 -11z"/>
<path d="M5072 2478 c-20 -20 -15 -58 7 -58 20 0 31 18 31 51 0 21 -20 25 -38
7z"/>
<path d="M4734 2365 c-8 -21 3 -48 19 -43 19 7 22 58 2 58 -8 0 -18 -7 -21
-15z"/>
<path d="M5085 2201 c-7 -12 12 -24 25 -16 11 7 4 25 -10 25 -5 0 -11 -4 -15
-9z"/>
<path d="M4984 2168 c-9 -18 -32 -50 -51 -71 -28 -31 -34 -45 -31 -75 2 -26 8
-38 21 -40 24 -5 63 32 72 66 4 15 18 49 31 76 27 54 26 76 -5 76 -13 0 -27
-12 -37 -32z"/>
<path d="M4716 1833 c-38 -41 -51 -79 -38 -108 18 -39 47 -31 87 23 36 49 43
80 23 100 -19 19 -45 14 -72 -15z"/>
<path d="M4467 1832 c-21 -23 -22 -52 -3 -52 19 0 46 38 39 56 -7 19 -17 18
-36 -4z"/>
<path d="M4522 1589 c-26 -23 -27 -32 -7 -49 20 -17 45 3 45 36 0 32 -13 37
-38 13z"/>
<path d="M4663 1528 c-40 -50 -39 -98 2 -98 50 0 77 101 29 108 -11 2 -25 -3
-31 -10z"/>
<path d="M3852 1450 c-37 -35 -22 -100 22 -100 31 0 56 30 56 66 0 54 -39 70
-78 34z"/>
<path d="M4611 1371 c-16 -28 13 -51 36 -28 18 18 11 47 -11 47 -9 0 -20 -9
-25 -19z"/>
<path d="M4470 1255 c-10 -12 -9 -16 5 -21 17 -7 38 13 29 28 -8 12 -20 10
-34 -7z"/>
<path d="M3645 1238 c-11 -6 -43 -32 -72 -57 -29 -25 -68 -59 -87 -74 -30 -25
-36 -35 -36 -69 0 -21 5 -48 11 -60 23 -43 131 -63 188 -33 30 15 41 33 41 67
0 11 16 42 35 68 45 62 49 118 9 149 -30 23 -59 26 -89 9z"/>
<path d="M4250 1018 c-47 -32 -73 -71 -66 -96 11 -32 35 -34 83 -6 53 30 84
84 63 109 -17 21 -41 19 -80 -7z"/>
<path d="M3797 952 c-38 -42 -9 -84 41 -60 32 16 47 40 39 62 -9 22 -60 21
-80 -2z"/>
<path d="M4563 5204 c-13 -33 35 -70 59 -46 6 6 8 22 4 36 -5 19 -13 26 -32
26 -14 0 -27 -7 -31 -16z"/>
<path d="M406 3643 c-4 -9 -1 -23 7 -30 12 -12 16 -12 26 1 16 19 8 46 -13 46
-7 0 -17 -8 -20 -17z"/>
<path d="M158 3424 c-36 -19 -58 -63 -58 -113 0 -45 17 -66 59 -76 16 -3 35
-13 42 -21 13 -16 66 -19 103 -4 97 36 86 140 -21 200 -59 33 -85 36 -125 14z"/>
<path d="M69 3150 c-42 -24 -28 -120 17 -120 47 0 72 80 36 113 -21 19 -30 20
-53 7z"/>
<path d="M290 3060 c-25 -25 -22 -44 9 -48 29 -5 53 16 49 42 -4 29 -32 32
-58 6z"/>
<path d="M5497 3032 c-19 -21 -23 -102 -7 -133 13 -23 46 -25 54 -3 3 9 6 40
6 69 0 85 -18 106 -53 67z"/>
<path d="M5407 1954 c-14 -14 -7 -35 11 -32 9 2 17 10 17 17 0 16 -18 25 -28
15z"/>
<path d="M5287 1843 c-4 -3 -7 -17 -7 -30 0 -27 34 -33 44 -7 10 25 -20 55
-37 37z"/>
<path d="M5325 1673 c-60 -40 -66 -51 -62 -111 3 -37 10 -60 24 -74 34 -33 63
-18 105 54 48 84 53 104 34 133 -21 32 -52 32 -101 -2z"/>
<path d="M5132 1488 c-16 -16 -15 -45 3 -52 18 -7 47 21 43 43 -4 20 -30 25
-46 9z"/>
<path d="M5204 1376 c-41 -29 -56 -106 -21 -106 17 0 53 38 61 66 3 11 0 28
-6 37 -12 16 -15 16 -34 3z"/>
<path d="M5333 1125 c-11 -8 -37 -49 -57 -92 -41 -85 -39 -113 7 -134 41 -19
84 12 118 84 33 70 36 102 13 135 -18 25 -50 28 -81 7z"/>
<path d="M4827 842 c-32 -33 -35 -62 -8 -62 24 0 65 55 57 75 -8 22 -19 19
-49 -13z"/>
<path d="M1012 637 c-16 -19 -1 -62 28 -77 28 -15 71 -9 84 12 24 38 -83 100
-112 65z"/>
</g>
</svg>
