<?xml version="1.0" standalone="no"?>
<!DOCTYPE svg PUBLIC "-//W3C//DTD SVG 20010904//EN"
 "http://www.w3.org/TR/2001/REC-SVG-20010904/DTD/svg10.dtd">
<svg version="1.0" xmlns="http://www.w3.org/2000/svg"
 width="700.000000pt" height="700.000000pt" viewBox="0 0 700.000000 700.000000"
 preserveAspectRatio="xMidYMid meet">
<metadata>
Created by potrace 1.11, written by Peter Selinger 2001-2013
</metadata>
<g transform="translate(0.000000,700.000000) scale(0.100000,-0.100000)"
fill="#000000" stroke="none">
<path d="M3275 6994 c-643 -52 -1201 -241 -1710 -579 -206 -137 -339 -248
-536 -444 -196 -197 -307 -330 -444 -536 -306 -461 -488 -957 -561 -1530 -25
-195 -25 -615 0 -810 86 -672 333 -1267 742 -1780 113 -141 408 -436 549 -549
513 -409 1108 -656 1780 -742 195 -25 615 -25 810 0 672 86 1267 333 1780 742
141 113 436 408 549 549 409 513 656 1108 742 1780 25 195 25 615 0 810 -86
672 -333 1267 -742 1780 -113 141 -408 436 -549 549 -504 401 -1093 650 -1740
737 -145 19 -546 33 -670 23z m611 -378 c582 -76 1113 -299 1567 -658 131
-104 401 -374 505 -505 367 -464 590 -1005 663 -1608 18 -143 18 -547 0 -690
-73 -603 -296 -1144 -663 -1608 -104 -131 -374 -401 -505 -505 -464 -367
-1005 -590 -1608 -663 -143 -18 -547 -18 -690 0 -603 73 -1144 296 -1608 663
-131 104 -401 374 -505 505 -367 464 -590 1005 -663 1608 -8 63 -14 210 -14
345 0 135 6 282 14 345 73 603 296 1144 663 1608 104 131 374 401 505 505 465
367 1041 604 1608 661 61 6 126 13 145 15 73 9 480 -4 586 -18z"/>
<path d="M3380 6264 c-424 -21 -850 -140 -1212 -340 -696 -385 -1199 -1056
-1368 -1826 -45 -207 -62 -367 -62 -598 0 -231 17 -391 62 -598 148 -676 564
-1292 1134 -1681 84 -57 91 -60 108 -44 17 15 18 55 18 820 0 441 -1 803 -2
803 -14 0 -173 -34 -217 -46 -74 -21 -192 -69 -264 -108 l-58 -31 -24 30 c-14
17 -25 35 -25 40 0 13 89 66 166 98 73 31 216 72 304 87 134 22 120 10 120
105 l0 83 -47 4 c-196 15 -442 -61 -616 -191 -35 -26 -69 -51 -75 -55 -19 -12
43 148 83 215 126 206 307 309 588 334 l67 7 0 768 0 769 -247 193 c-136 106
-258 203 -272 215 l-26 22 1913 1 c1051 0 1912 -3 1912 -7 0 -5 -28 -42 -61
-83 -144 -179 -284 -398 -394 -620 -68 -135 -135 -282 -135 -293 0 -3 -9 -27
-20 -53 l-21 -47 -55 119 c-96 209 -196 364 -301 466 -182 177 -450 226 -1170
214 -204 -3 -379 -9 -387 -12 -14 -6 -16 -93 -16 -830 l0 -824 110 0 110 0 0
734 0 733 93 6 c225 16 518 19 662 8 355 -29 510 -90 672 -264 58 -62 150
-187 138 -187 -2 0 -63 44 -135 98 -235 177 -325 222 -491 243 -108 14 -470
17 -701 5 l-158 -8 0 -684 0 -684 337 2 337 3 221 302 c121 166 226 308 233
315 9 10 12 -142 12 -757 0 -485 -4 -765 -9 -760 -6 6 -111 138 -234 295
l-223 285 -487 3 -487 2 0 -1005 0 -1005 110 0 110 0 0 920 0 920 388 0 387
-1 50 -44 49 -45 -392 0 -392 0 0 -880 0 -880 98 0 c147 0 449 18 602 36 363
43 586 150 742 355 31 41 116 177 189 303 131 225 133 228 142 195 29 -123 75
-270 112 -364 47 -119 134 -286 152 -292 13 -5 163 113 163 127 0 5 -14 32
-30 59 -28 45 -128 251 -143 294 -6 15 -3 17 15 11 80 -25 84 -29 153 -161 36
-71 70 -132 75 -137 5 -5 52 35 111 95 429 438 698 993 775 1604 22 173 22
497 0 670 -135 1064 -857 1948 -1868 2287 -312 104 -684 157 -998 142z m2121
-1151 l17 -28 -111 -155 c-207 -290 -407 -631 -480 -820 l-18 -45 -29 35 c-16
19 -30 39 -30 43 0 5 31 72 68 150 125 259 274 504 439 724 49 63 92 121 98
129 11 15 24 7 46 -33z m-1081 -1205 l40 -23 0 -792 c0 -436 -2 -793 -6 -793
-3 0 -23 10 -44 23 l-40 22 0 793 c0 435 2 792 6 792 3 0 23 -10 44 -22z"/>
<path d="M3175 753 c133 -18 517 -18 650 0 95 14 79 14 -325 14 -404 0 -420 0
-325 -14z"/>
</g>
</svg>
