<svg xmlns="http://www.w3.org/2000/svg" class="icons-sprite">
	<symbol id="close" viewBox="0 0 612 612">
		<path d="M612 36.004L576.521.603 306 270.608 35.478.603 0 36.004l270.522 270.007L0 575.997l35.478 35.4L306 341.411l270.521 269.986 35.479-35.4-270.541-269.986z"/>
	</symbol>
	<symbol id="down" viewBox="0 0 306 306">
		<path d="M270.3 58.65L153 175.95 35.7 58.65 0 94.35l153 153 153-153z"/>
	</symbol>
	<symbol id="email" viewBox="0 0 612 612">
		<path d="M306.768 346.814h.131c4.615 0 9.176-1.339 12.866-3.777l1.001-.643c.218-.142.446-.271.675-.424l11.658-9.645 278.259-229.624c-.576-.795-1.557-1.339-2.602-1.339H3.233c-.751 0-1.448.272-2.003.729l291.125 239.954c3.669 3.038 8.904 4.769 14.413 4.769zM0 133.899v340.37l208.55-168.471L0 133.899zm403.668 173.042L612 474.356V135.031l-208.332 171.91zm-66.237 54.644c-8.305 6.814-19.168 10.57-30.576 10.57-11.451 0-22.304-3.734-30.587-10.516l-47.765-39.394L0 506.806v.587c0 1.753 1.502 3.244 3.276 3.244h605.491c1.741 0 3.232-1.491 3.232-3.255v-.544L383.693 323.4l-46.262 38.185z"/>
	</symbol>
	<symbol id="facebook" viewBox="0 0 470.513 470.513">
		<path d="M271.521 154.17v-40.541c0-6.086.28-10.8.849-14.13.567-3.335 1.857-6.615 3.859-9.853 1.999-3.236 5.236-5.47 9.706-6.708 4.476-1.24 10.424-1.858 17.85-1.858h40.539V0h-64.809c-37.5 0-64.433 8.897-80.803 26.691-16.368 17.798-24.551 44.014-24.551 78.658v48.82h-48.542v81.086h48.539v235.256h97.362V235.256h64.805l8.566-81.086h-73.37z"/>
	</symbol>
	<symbol id="flickr" viewBox="0 0 90 90">
		<path d="M90 45.004C90 56.047 80.973 65 69.83 65c-11.139 0-20.169-8.953-20.169-19.996C49.661 33.955 58.691 25 69.83 25 80.973 25 90 33.955 90 45.004zM20.169 25C9.03 25 0 33.955 0 45.004 0 56.047 9.03 65 20.169 65s20.169-8.953 20.169-19.996C40.338 33.955 31.308 25 20.169 25z"/>
	</symbol>
	<symbol id="google" viewBox="0 0 491.858 491.858">
		<path d="M377.472 224.957H201.319v58.718H308.79c-16.032 51.048-63.714 88.077-120.055 88.077-69.492 0-125.823-56.335-125.823-125.824 0-69.492 56.333-125.823 125.823-125.823 34.994 0 66.645 14.289 89.452 37.346l42.622-46.328c-34.04-33.355-80.65-53.929-132.074-53.929C84.5 57.193 0 141.693 0 245.928s84.5 188.737 188.736 188.737c91.307 0 171.248-64.844 188.737-150.989v-58.718l-.001-.001zm114.386-.1h-36.031v-36.031h-30.886v36.031H388.91v30.883h36.031v36.032h30.886V255.74h36.031z"/>
	</symbol>
	<symbol id="instagram" viewBox="0 0 300 300">
		<path d="M38.52.012h222.978C282.682.012 300 17.336 300 38.52v222.978c0 21.178-17.318 38.49-38.502 38.49H38.52c-21.184 0-38.52-17.313-38.52-38.49V38.52C0 17.336 17.336.012 38.52.012zm180.026 33.317c-7.438 0-13.505 6.091-13.505 13.525v32.314c0 7.437 6.067 13.514 13.505 13.514h33.903c7.426 0 13.506-6.077 13.506-13.514V46.854c0-7.434-6.08-13.525-13.506-13.525h-33.903zm47.538 93.539h-26.396a87.715 87.715 0 0 1 3.86 25.759c0 49.882-41.766 90.34-93.266 90.34-51.487 0-93.254-40.458-93.254-90.34 0-8.963 1.37-17.584 3.861-25.759H33.35V253.6c0 6.563 5.359 11.902 11.916 11.902h208.907c6.563 0 11.911-5.339 11.911-11.902V126.868zm-115.801-35.89c-33.26 0-60.24 26.128-60.24 58.388 0 32.227 26.98 58.375 60.24 58.375 33.278 0 60.259-26.148 60.259-58.375 0-32.261-26.981-58.388-60.259-58.388z"/>
	</symbol>
	<symbol id="left" viewBox="0 0 306 306">
		<path d="M247.35 35.7L211.65 0l-153 153 153 153 35.7-35.7L130.05 153z"/>
	</symbol>
	<symbol id="linkedin" viewBox="0 0 90 90">
		<path d="M20.379 10.252c0 5.315-3.924 9.62-10.381 9.62-6.074 0-9.998-4.304-9.998-9.62C0 4.809 4.051.631 10.252.631c6.203 0 10.002 4.178 10.127 9.621zM.506 89.368v-61.9h19.242v61.901H.506zm30.756-42.153c0-7.721-.252-14.176-.504-19.747h16.707l.889 8.608h.379c2.531-4.053 8.734-10.002 19.115-10.002C80.506 26.074 90 34.556 90 52.784v36.585H70.758V55.063c0-7.976-2.785-13.417-9.748-13.417-5.316 0-8.479 3.67-9.871 7.215-.508 1.265-.635 3.038-.635 4.811v35.697H31.262V47.215z"/>
	</symbol>
	<symbol id="pinterest" viewBox="0 0 310.05 310.05">
		<path d="M245.265 31.772C223.923 11.284 194.388 0 162.101 0c-49.32 0-79.654 20.217-96.416 37.176-20.658 20.9-32.504 48.651-32.504 76.139 0 34.513 14.436 61.003 38.611 70.858 1.623.665 3.256 1 4.857 1 5.1 0 9.141-3.337 10.541-8.69.816-3.071 2.707-10.647 3.529-13.936 1.76-6.495.338-9.619-3.5-14.142-6.992-8.273-10.248-18.056-10.248-30.788 0-37.818 28.16-78.011 80.352-78.011 41.412 0 67.137 23.537 67.137 61.425 0 23.909-5.15 46.051-14.504 62.35-6.5 11.325-17.93 24.825-35.477 24.825-7.588 0-14.404-3.117-18.705-8.551-4.063-5.137-5.402-11.773-3.768-18.689 1.846-7.814 4.363-15.965 6.799-23.845 4.443-14.392 8.643-27.985 8.643-38.83 0-18.55-11.404-31.014-28.375-31.014-21.568 0-38.465 21.906-38.465 49.871 0 13.715 3.645 23.973 5.295 27.912-2.717 11.512-18.865 79.953-21.928 92.859-1.771 7.534-12.44 67.039 5.219 71.784 19.841 5.331 37.576-52.623 39.381-59.172 1.463-5.326 6.582-25.465 9.719-37.845 9.578 9.226 25 15.463 40.006 15.463 28.289 0 53.73-12.73 71.637-35.843 17.367-22.418 26.932-53.664 26.932-87.978 0-26.826-11.52-53.272-31.604-72.556z"/>
	</symbol>
	<symbol id="plus" viewBox="0 0 357 357">
		<path d="M357 204H204v153h-51V204H0v-51h153V0h51v153h153v51z"/>
	</symbol>
	<symbol id="right" viewBox="0 0 306 306">
		<path d="M94.35 0l-35.7 35.7L175.95 153 58.65 270.3l35.7 35.7 153-153z"/>
	</symbol>
	<symbol id="skype" viewBox="0 0 430.123 430.123">
		<path d="M412.164 246.198a199.284 199.284 0 0 0 2.45-31.148c0-110.215-89.342-199.555-199.56-199.555-10.576 0-20.995.871-31.141 2.458C165.534 6.581 143.842 0 120.595 0 53.996 0 .005 53.984.005 120.59c0 23.242 6.585 44.916 17.952 63.332-1.573 10.172-2.439 20.528-2.439 31.132 0 110.223 89.34 199.536 199.532 199.536 10.585 0 21.007-.816 31.152-2.417 18.398 11.35 40.072 17.949 63.314 17.949 66.617 0 120.602-53.998 120.602-120.602.005-23.251-6.576-44.92-17.954-63.322zM309.801 305.81c-8.442 12.153-20.843 21.65-37.047 28.479-16.237 6.847-35.428 10.254-57.59 10.254-26.562 0-48.554-4.648-65.913-14.034-12.305-6.721-22.313-15.737-30.007-26.98-7.71-11.252-11.619-22.271-11.619-33.015 0-6.338 2.417-11.85 7.122-16.344 4.754-4.527 10.877-6.796 18.104-6.796 5.92 0 11.005 1.783 15.145 5.316 4.109 3.532 7.556 8.667 10.375 15.443 3.379 7.85 7.049 14.412 10.954 19.648 3.881 5.171 9.343 9.488 16.417 12.867 6.996 3.388 16.307 5.082 27.958 5.082 15.945 0 28.831-3.449 38.693-10.253 9.912-6.866 14.673-15.22 14.673-25.314 0-8.051-2.567-14.445-7.831-19.43-5.312-5.05-12.172-8.896-20.685-11.579-8.546-2.711-20.02-5.586-34.399-8.615-19.308-4.214-35.456-9.119-48.533-14.752-13.094-5.654-23.522-13.383-31.251-23.146-7.745-9.859-11.607-22.113-11.607-36.627 0-13.84 4.077-26.217 12.239-36.989 8.158-10.802 19.961-19.07 35.351-24.829 15.336-5.757 33.391-8.637 54.075-8.637 16.541 0 30.849 1.914 42.96 5.722 12.078 3.836 22.146 8.898 30.196 15.25 7.999 6.338 13.885 13.023 17.613 20.038 3.725 7.036 5.601 13.908 5.601 20.614 0 6.235-2.417 11.89-7.127 16.846-4.709 4.963-10.733 7.493-17.768 7.47-6.342 0-11.317-1.463-14.767-4.56-3.36-2.996-6.889-7.766-10.706-14.414-4.825-9.276-10.604-16.503-17.324-21.672-6.543-5.073-17.338-7.714-32.359-7.682-13.898 0-25.018 2.84-33.411 8.394-8.445 5.643-12.482 12.19-12.501 19.861.014 4.807 1.396 8.86 4.177 12.326 2.824 3.498 6.753 6.529 11.803 9.084a81.825 81.825 0 0 0 15.355 6.046c5.225 1.481 13.894 3.622 25.944 6.457 15.112 3.257 28.819 6.896 41.136 10.862 12.293 3.986 22.784 8.793 31.451 14.52 8.736 5.71 15.564 12.99 20.438 21.783 4.909 8.807 7.354 19.564 7.354 32.222.019 15.242-4.227 28.95-12.689 41.084z"/>
	</symbol>
	<symbol id="twitter" viewBox="0 0 512.002 512.002">
		<path d="M512.002 97.211c-18.84 8.354-39.082 14.001-60.33 16.54 21.686-13 38.342-33.585 46.186-58.115a210.29 210.29 0 0 1-66.705 25.49c-19.16-20.415-46.461-33.17-76.674-33.17-58.011 0-105.042 47.029-105.042 105.039 0 8.233.929 16.25 2.72 23.939-87.3-4.382-164.701-46.2-216.509-109.753-9.042 15.514-14.223 33.558-14.223 52.809 0 36.444 18.544 68.596 46.73 87.433a104.614 104.614 0 0 1-47.577-13.139c-.01.438-.01.878-.01 1.321 0 50.894 36.209 93.348 84.261 103a105.245 105.245 0 0 1-27.674 3.687c-6.769 0-13.349-.66-19.764-1.888 13.368 41.73 52.16 72.104 98.126 72.949-35.95 28.176-81.243 44.967-130.458 44.967-8.479 0-16.84-.496-25.058-1.471 46.486 29.807 101.701 47.197 161.021 47.197 193.211 0 298.868-160.062 298.868-298.872 0-4.554-.104-9.084-.305-13.59 20.526-14.809 38.335-33.309 52.417-54.373z"/>
	</symbol>
	<symbol id="vimeo" viewBox="0 0 299.999 299.999">
		<path d="M298.723 68.78c2.238-12.561 2.188-25.477-5.57-35.245-10.824-13.696-33.863-14.2-49.646-11.783-12.84 1.963-56.269 21.124-71.047 66.996 26.182-1.99 39.904 1.887 37.385 30.713-1.055 12.061-7.148 25.274-13.947 37.941-7.857 14.603-22.583 43.277-41.894 22.608-17.394-18.602-16.088-54.179-20.065-77.871-2.215-13.292-4.557-29.857-8.912-43.529-3.753-11.757-12.359-25.932-22.884-29.004-11.304-3.322-25.28 1.863-33.487 6.698C42.522 51.661 22.605 73.513 0 91.54c3.68 7.884 5.687 12.992 12.283 13.949 15.561 2.292 30.391-14.502 40.736 2.971 6.294 10.675 8.26 22.381 12.287 33.891 5.387 15.328 9.541 32.02 13.947 49.646 7.452 29.857 16.618 74.47 42.424 85.398 13.166 5.591 32.957-1.889 42.977-7.831 27.14-16.061 48.289-39.348 66.391-63.04 41.389-56.071 64.225-119.591 67.678-137.744z" clip-rule="evenodd"/>
	</symbol>
</svg>