<svg xmlns="http://www.w3.org/2000/svg" viewBox="0 0 207 133"><rect x="-0.2" fill-opacity="0" width="207.3" height="133"/>
   <filter id="dropShadow">
      <feGaussianBlur in="SourceAlpha" result="blur-out" stdDeviation="6" />
      <feOffset in="blur-out" result="the-shadow" dx="8" dy="3"/>
      <feColorMatrix in="the-shadow" result="color-out" type="matrix"
         values="0 0 0 0   0
               0 0 0 0   0
               0 0 0 0   0
               0 0 0 .3 0"/>
      <feBlend in="SourceGraphic" in2="color-out" mode="normal"/>
   </filter>
   <g><path fill="#FFFFFF" d="M52.8 61.9c-0.2-0.1-0.5 0-0.6 0.2l-2.3 3.7l-2.4-3.8c-0.1-0.2-0.4-0.3-0.6-0.2c-0.2 0.1-0.4 0.3-0.4 0.5 V67c0 0.3 0.2 0.5 0.5 0.5c0.3 0 0.5-0.2 0.5-0.5v-2.8l1.9 3c0.1 0.2 0.3 0.2 0.4 0.2c0 0 0 0 0 0c0.2 0 0.3-0.1 0.4-0.2l1.7-2.8 l0 2.6c0 0.3 0.2 0.5 0.5 0.5c0 0 0 0 0 0c0.3 0 0.5-0.2 0.5-0.5l0-4.5C53.1 62.2 53 62 52.8 61.9z"/><path fill="#FFFFFF" d="M85.5 66.6c0 0-0.1 0-0.1 0c0 0-0.1-0.2-0.1-0.3c-0.1-0.3-0.3-0.7-0.5-1c0.9-0.3 1.4-1.1 1.3-1.8 c0-0.8-0.6-1.6-2-1.6h-4.2c-0.3 0-0.5 0.2-0.5 0.5V67c0 0.3 0.2 0.5 0.5 0.5c0.3 0 0.5-0.2 0.5-0.5v-1.6c0.7 0 1.7 0 2.5 0 c0.1 0 0.1 0 0.2 0c0.6 0 0.9 0.6 1.2 1.3c0.1 0.2 0.1 0.3 0.2 0.5c0.2 0.3 0.6 0.5 0.9 0.5c0.2 0 0.3 0 0.4-0.1 c0.3-0.1 0.4-0.4 0.3-0.7S85.7 66.5 85.5 66.6z M84.1 64.3c0 0-2.5 0-3.7 0V63H84c0.3 0 0.9 0.1 0.9 0.5 C85 63.8 84.7 64.3 84.1 64.3z"/><path fill="#FFFFFF" d="M101.1 62.1c-0.1-0.2-0.3-0.2-0.5-0.2c-0.2 0-0.3 0.1-0.4 0.3l-2.6 4.5c-0.1 0.2-0.1 0.6 0.2 0.7 c0.1 0 0.2 0.1 0.3 0.1c0.2 0 0.4-0.1 0.5-0.3l0.5-0.8c0 0 0.1 0 0.1 0h3.4c0.1 0 0.1 0 0.2 0l0.5 0.8c0.2 0.2 0.5 0.3 0.7 0.1 c0.2-0.2 0.3-0.5 0.1-0.7L101.1 62.1z M99.6 65.3l1.1-1.9l1.3 1.9H99.6z"/><path fill="#FFFFFF" d="M118.8 66.4h-3v-3.9c0-0.3-0.2-0.5-0.5-0.5s-0.5 0.2-0.5 0.5V67c0 0.3 0.2 0.5 0.5 0.5h3.5 c0.3 0 0.5-0.2 0.5-0.5C119.4 66.7 119.1 66.4 118.8 66.4z"/><path fill="#FFFFFF" d="M134.5 64.2c-0.2 0-0.4-0.1-0.6-0.1c-0.9-0.1-1.2-0.2-1.2-0.5c0-0.1 0-0.2 0.1-0.3c0.2-0.2 0.7-0.5 1.6-0.5 c1 0 1.2 0.4 1.2 0.5c0.1 0.3 0.4 0.4 0.7 0.3c0.3-0.1 0.4-0.4 0.3-0.7c-0.1-0.4-0.8-1.2-2.2-1.2c-1.1 0-2 0.3-2.5 0.9 c-0.3 0.3-0.4 0.8-0.2 1.2c0.3 1 1.2 1.2 2.1 1.3c0.2 0 0.4 0.1 0.6 0.1c0.8 0.1 1.2 0.4 1.4 0.6c0 0.1 0 0.1 0 0.2 c-0.1 0.2-1.1 0.5-1.9 0.5c-0.9 0-1.7-0.5-1.7-0.6c-0.2-0.2-0.6-0.1-0.7 0.2s-0.1 0.6 0.2 0.7c0 0 1.1 0.7 2.3 0.7c0 0 0.1 0 0.1 0 c0.8 0 2.6-0.2 2.9-1.3c0.1-0.3 0-0.7-0.2-0.9C136.1 64.6 135.2 64.3 134.5 64.2z"/><path class="brush-tip" fill="#FFFFFF" d="M45.9 52.7L28.3 50L35 61.5l10.8-4c0.8 0 1.1-1.1 1.1-2.4S46.7 52.7 45.9 52.7z"/><path fill="#FFFFFF" d="M147.2 43.5c-0.7-1.3-1.9-2.2-3.5-2.5c-2.1-0.4-4.5 0.4-6.3 2c-3.7 3.4-5.4 3.4-5.9 3.3 c-0.3-0.1-0.4-0.2-0.6-0.4c-0.2-0.6 0.1-3 0.7-5.7c2.2-2.5 4.4-5.8 6.6-9c0.7-1 1.3-1.9 1.9-2.7c2.4-3.4 3.3-4.8 4.1-7.7 c0.4-1.7 0.8-3.8-0.6-4.5c-1.5-0.9-3.7 1.1-4.5 2c-2.8 2.9-5 7.9-7.1 12.9c-0.7 1.6-1.6 4.9-2.3 8c-0.4 0.4-0.8 0.9-1.2 1.3 c-3.9 3.9-5.4 5.2-6.9 5.1c-0.5 0-0.6-0.2-0.7-0.3c-0.6-0.9-0.4-3.5 0.7-7.8c1.6-1.7 3.1-3.4 4.2-4.7c4.5-5.1 6.9-9.2 7.3-12.5 c0 0 0.2-3.4-1.7-4.2c-1.6-0.7-3.1 1.2-3.6 1.8c-2.4 3.1-6 10.1-8.1 18.3c0 0.1 0 0.1-0.1 0.2c-3.5 3.8-6.8 7.3-8.5 8.7 c0.1-0.7 0.4-2 1.1-4.1c0.9-2.8 3.8-6.4 3.8-6.4c0.4-0.5 0.3-1.1-0.2-1.5s-1.1-0.3-1.5 0.2c-0.1 0.1-0.7 0.9-1.5 2.1 c0-2.1-1.1-2.8-1.8-3c-0.5-0.1-1-0.2-1.5-0.2c-4.4 0-7.1 5.2-8 7.5c-0.3 0.8-0.6 1.6-0.7 2.4c-0.1 0-0.1 0.1-0.2 0.2 c-2 2-5 3.8-5.9 3.5c-0.1-1.7 4.3-9.1 5.8-11.3c0 0 0-0.1 0.1-0.1c0.3-0.5 0.2-1.1-0.3-1.4S99.3 32.6 99 33c0 0 0 0.1-0.1 0.1 c-0.6 0.8-4 3.6-5 3.4c-0.1 0-0.3-0.1-0.4-0.1c0.5-1.2 0.8-2.4 0.5-3.2c-0.3-0.8-1.3-1.6-2.4-1.6c-0.6 0-1.8 0.3-2.5 2.2 c-0.3 0.9-0.3 1.8 0.2 2.5c0.3 0.5 0.8 0.9 1.4 1.3c-0.3 0.7-0.7 1.3-0.9 1.7c-2.5 3.9-4.6 5-5.8 5.6l-0.2 0.1 c-0.8 0.4-3.3 1.6-5.7 0.1c-1.4-0.9-1.4-2.8-1.1-4.5c0.7 0.5 1.6 0.8 3.2 0.7c2.5-0.2 4.8-1.9 5.2-4c0.3-1.3 0-2.7-0.7-3.7 c-0.7-0.9-1.7-1.4-3-1.4c-2.8 0-4.4 2.2-5.5 4.3c-0.2-0.4-0.4-1.2-0.6-1.8c-0.3-1.2-0.6-2.3-1.6-2.6c-1-0.2-1.6 0.6-1.9 0.9 c-1.6 1.9-2.6 4.6-3.8 7.8c-0.2 0.5-0.4 1-0.6 1.5c-0.8 2.2-3.1 3.3-4.1 3.2c-0.7-0.1-1.1-0.4-1.4-0.8c-0.3-0.5-0.3-1.1-0.1-1.7 c0.3-0.8 2-3.3 3.3-5.2c0.6-0.9 1.2-1.8 1.6-2.5c0.7-1.1 1.1-1.8 0.4-2.5c-0.1-0.1-0.7-0.6-1.5 0c-1.7 1.4-3.9 0.9-4.8 0.5 c1.2-2.6 1.9-5.1 2.1-7.1c0.5-5.5-1.8-9.4-6.1-10.6c-4.6-1.2-10 1.3-11.9 5.4c-0.2 0.5 0 1.1 0.5 1.4c0.5 0.2 1.1 0 1.4-0.5 c1.5-3.2 5.8-5.2 9.5-4.2c3.3 0.9 4.9 3.8 4.5 8.4c-0.6 6.5-8.8 20.6-16.2 20.2c-3-0.1-5-1-5.9-2.5c-2-3.4 1.3-9.8 2.8-12.8 c0.1-0.1 0.1-0.3 0.2-0.4c0.7 0.3 1.5 0.5 2.4 0.3c2.7-0.5 3.4-1.9 3.5-2.7c0.3-1.3-0.5-2.5-1.3-3c-0.7-0.4-1.5-0.5-2.5-0.2 c-0.7 0.2-1.8 0.8-2.8 2.2c-0.9-1.2-1.6-2.9-1.9-3.7c-0.1-0.3-0.2-0.5-0.3-0.6c-0.3-0.5-0.9-0.7-1.4-0.5c-0.5 0.3-0.7 0.9-0.5 1.4 c0 0.1 0.1 0.3 0.2 0.5c0.5 1.1 1.4 3.4 2.8 4.9c-0.1 0.2-0.2 0.5-0.4 0.7C38 34 34.6 40.7 37.1 45.1c1.3 2.2 3.8 3.4 7.6 3.6 c0.1 0 0.2 0 0.4 0c5.8 0 11.7-6.6 15.1-13.2c0.7 0.3 2.3 0.8 4 0.5c-0.2 0.3-0.4 0.5-0.5 0.8c-1.8 2.7-3.1 4.7-3.5 5.6 c-0.4 1.2-0.4 2.5 0.2 3.5c0.6 1 1.6 1.6 2.9 1.8c2 0.3 5.1-1.6 6.3-4.5c0.2-0.5 0.4-1.1 0.6-1.6c1.1-2.9 2-5.2 3.2-6.8 c0.1 0.2 0.1 0.4 0.1 0.5c0.3 1.1 0.6 2.2 1.3 3c0.1 0.1 0.2 0.3 0.4 0.4c-0.9 2.7-1.2 6.3 1.6 8.1c1.1 0.7 2.4 1.1 3.7 1.1 c1.3 0 2.6-0.4 4.1-1.1l0.1-0.1c1.3-0.7 3.8-1.9 6.7-6.3c0 0 0.6-0.9 1.2-2.1c0.3 0.1 0.6 0.1 0.9 0.2c0.7 0.1 1.5-0.1 2.3-0.5 c-0.2 0.3-0.3 0.6-0.5 0.8c-3.1 5.5-3 7.2-2 8.1c2.1 1.8 5.6-0.7 7.6-2.3c0.1 0.6 0.3 1.1 0.6 1.6c0.6 0.9 1.5 1.4 2.7 1.4 c0.1 0 0.3 0 0.4 0c1.6-0.2 3.2-1.4 4.6-3.1c-0.2 1.4-0.1 2.1 0.2 2.5c0.3 0.4 0.7 0.6 1.1 0.6c0.6 0 1.2 0.1 6.7-5.6 c0.5-0.5 1-1.1 1.6-1.7c-0.5 3-0.4 4.8 0.4 6c0.4 0.5 1.1 1.1 2.3 1.2c2.3 0.2 4.2-1.5 7.5-4.7c-0.2 1.8-0.3 3.2 0 3.9 c0.4 0.9 1.1 1.4 2.1 1.6c1.9 0.4 4.5-0.9 7.7-3.8c1.3-1.2 3-1.7 4.5-1.5c0.7 0.1 1.6 0.5 2 1.4c0.7 1.4 0.7 2.6 0 3.8 c-1.3 2.2-4.8 3.5-7.3 3.7l0 0l-0.1 0c-0.3 0-0.6 0-0.8 0c0 0-0.1 0-0.1 0c-0.3 0-0.8 0-1.6 0c0 0 0 0-0.1 0l-87.4 0.2 c-0.1 0-0.2 0-0.3 0c-0.6 0-1.2 0.2-1.7 0.5c-0.9 0.5-1.4 3.6-0.1 4.7c0.6 0.4 1.5 0.5 2.2 0.5h0l86.4-3.5c2.3-0.1 3.2-0.2 3.6-0.3 c0.2 0 0.4-0.1 0.5-0.1c2.9-0.4 6.8-1.9 8.5-4.7C148.2 47.5 148.2 45.5 147.2 43.5z M134 31.9c2-4.8 4.1-9.6 6.7-12.2 c0.5-0.6 1.4-1.7 1.9-1.5c0.4 0.2 0 1.3-0.3 2.2c-0.7 2.5-1.5 3.4-3.8 6.8c-0.5 0.8-1.2 1.7-1.9 2.7c-1.2 1.8-2.4 3.6-3.7 5.2 C133.2 34 133.6 32.8 134 31.9z M129.6 19.2c0.3-0.4 0.8-1.3 1.1-1.1c0.4 0.2 0.4 1.7 0.4 1.9c-0.4 2.9-2.6 6.6-6.8 11.4 c-0.4 0.5-0.8 1-1.3 1.4C125 26.6 127.7 21.6 129.6 19.2z M78 37.8c1.2-2.3 2.3-3.3 3.7-3.3c0.6 0 1 0.2 1.3 0.6 c0.4 0.5 0.5 1.2 0.3 1.9c-0.3 1.2-1.7 2.2-3.4 2.4c-1.4 0.1-1.8-0.2-2.3-0.8C77.8 38.2 77.9 38 78 37.8z M44.7 27.3 c0.4-0.1 0.7-0.1 0.7 0c0.2 0.1 0.5 0.5 0.4 0.8c-0.1 0.3-0.6 0.8-1.8 1c-0.4 0.1-0.7 0-1.1-0.1C43.6 27.8 44.4 27.4 44.7 27.3z M91.5 35.8c-0.3-0.2-0.4-0.3-0.4-0.4c0-0.1-0.2-0.3 0-0.8c0.2-0.6 0.4-0.8 0.5-0.8c0 0 0 0 0 0c0.1 0 0.3 0.1 0.4 0.3 C92 34.4 91.8 35.1 91.5 35.8z M110.9 35.8c-0.3 3.7-3.9 9.6-6.5 9.9c-0.1 0-0.1 0-0.2 0c-0.4 0-0.7-0.1-0.9-0.5 c-0.5-0.8-0.6-2.6 0.3-4.8c1.3-3 3.6-6.2 6.1-6.2c0.3 0 0.6 0 0.9 0.1C110.8 34.4 110.9 34.9 110.9 35.8z"/><circle fill="#FFFFFF" cx="58.6" cy="64.5" r="1.2"/><circle fill="#FFFFFF" cx="74.3" cy="64.5" r="1.2"/><circle fill="#FFFFFF" cx="92.4" cy="64.5" r="1.2"/><circle fill="#FFFFFF" cx="108.8" cy="64.5" r="1.2"/><circle fill="#FFFFFF" cx="125.1" cy="64.5" r="1.2"/><path fill="#FFFFFF" d="M69.3 61.9c-0.3 0-0.5 0.2-0.5 0.5c0 0 0 0 0 0.1c0 0.2 0 2.1 0 3.8c-0.6 0.4-3.2 0.5-3.7 0.1 c0.1-1.9 0.1-3.9 0.1-3.9c0-0.3-0.2-0.5-0.5-0.5c0 0 0 0 0 0c-0.3 0-0.5 0.2-0.5 0.5c0 0 0 2-0.1 3.9c0 0.2 0 0.6 0.5 0.8 c0.4 0.3 1.3 0.4 2.1 0.4c1 0 2.1-0.2 2.7-0.5c0.4-0.2 0.5-0.6 0.5-0.8c0-1.5 0-3.2 0-3.8c0-0.1 0-0.1 0-0.2 C69.8 62.1 69.6 61.9 69.3 61.9z"/></g>
</svg>