<?xml version="1.0" encoding="UTF-8" standalone="no"?>
<svg
   xmlns:dc="http://purl.org/dc/elements/1.1/"
   xmlns:cc="http://creativecommons.org/ns#"
   xmlns:rdf="http://www.w3.org/1999/02/22-rdf-syntax-ns#"
   xmlns:svg="http://www.w3.org/2000/svg"
   xmlns="http://www.w3.org/2000/svg"
   viewBox="0 0 459.94666 198.53333"
   height="198.53333"
   width="459.94666"
   xml:space="preserve"
   id="svg2"
   version="1.1"><metadata
     id="metadata8"><rdf:RDF><cc:Work
         rdf:about=""><dc:format>image/svg+xml</dc:format><dc:type
           rdf:resource="http://purl.org/dc/dcmitype/StillImage" /></cc:Work></rdf:RDF></metadata><defs
     id="defs6" /><g
     transform="matrix(1.3333333,0,0,-1.3333333,0,198.53333)"
     id="g10"><g
       transform="scale(0.1)"
       id="g12"><path
         id="path14"
         style="fill:#ffffff;fill-opacity:1;fill-rule:nonzero;stroke:none"
         d="m 1808.12,952.457 c -3.62,-11.941 -2.48,-15.73 -2.48,-15.769 3.11,-3.918 15.87,-7.793 32.6,-11.524 7.2,17.039 12.99,32.508 16.06,43.914 -16.98,-1.922 -40.35,-9.207 -46.18,-16.621 z M 1434.84,835.23 c 15.82,-19.812 26.61,-27.136 67.22,-24.14 45.93,3.379 88.16,32.988 96.12,67.422 4.63,20.078 0.96,40.793 -9.58,54.043 -8.48,10.664 -21.28,16.066 -38.04,16.066 -39.49,0 -71.42,-28.293 -106.77,-94.601 -2.7,-5.047 -5.77,-11.415 -8.95,-18.79 z m 82.8,-274.324 c -37.6,0 -72.98,10.723 -105.86,32.168 -79.95,52.149 -70.99,155.36 -45.33,231.922 -3.14,3.672 -6.5,7.363 -10.2,11.055 -21.12,21.133 -30.07,55.332 -37.97,85.5 -1.21,4.629 -2.65,10.137 -4.16,15.469 -35.18,-47.364 -60.7,-113.633 -92.44,-196.067 -5.59,-14.512 -11.33,-29.422 -17.31,-44.715 -32.65,-83.371 -122.01,-136.933 -180.15,-129.179 -36.872,4.921 -66.49,23.132 -83.384,51.289 -17.313,28.847 -19.984,66.57 -7.16,100.898 9.844,26.348 47.433,83.75 99.454,161.981 4.99,7.492 10.22,15.351 15.42,23.214 -65.761,-8.996 -123.206,17.977 -126.64,19.629 -14.93,7.196 -21.195,25.125 -14.004,40.047 7.184,14.914 25.047,21.184 39.961,14.055 1.371,-0.656 88.203,-40.5 150.563,10.898 22.96,18.93 41.57,3.27 43.62,1.414 20.88,-18.836 7.08,-40.703 -12.03,-70.964 -12.07,-19.114 -29,-44.571 -46.92,-71.524 -35.89,-53.957 -85.034,-127.844 -93.221,-149.746 -6.488,-17.375 -5.586,-35.703 2.41,-49.035 7.516,-12.527 20.931,-20.156 39.881,-22.684 26.28,-3.515 91.99,29.403 116.33,91.582 5.94,15.176 11.64,29.989 17.19,44.395 34.53,89.687 64.36,167.148 109.76,222.449 6.43,7.832 26.03,31.603 53.58,25.583 29.69,-6.5 38.24,-39.185 47.29,-73.794 4.29,-16.359 9.82,-37.519 16.77,-50.324 31.34,57.812 77.55,122.198 157.47,122.198 34.95,0 65.13,-13.749 84.99,-38.71 21.98,-27.629 29.87,-66.847 21.09,-104.894 -14,-60.555 -77.16,-108.399 -150.19,-113.77 -45.58,-3.348 -72.84,5.918 -92.29,20.215 -10.51,-48.242 -9.65,-102.012 30.4,-128.133 69.12,-45.09 139.53,-9.66 162.66,1.981 l 4.34,2.179 c 35.58,17.782 95.13,47.547 167.4,160.332 8.81,13.739 21.33,36.785 33.75,61.914 -28.04,7.559 -47.16,17.508 -58.45,36.043 -13.98,22.961 -8.47,48.411 -3.11,65.547 12.78,40.896 73.56,57.286 108.87,58.006 36.21,1 49.11,-14.54 53.75,-27.49 6.77,-18.875 -1.61,-52.43 -15.33,-88.024 l 9.53,-1.691 c 33.98,-6.141 119.63,56.789 135.9,77.063 0.98,1.453 1.65,2.41 1.95,2.8 9.77,12.692 27.81,15.512 40.95,6.399 13.13,-9.141 16.45,-27.551 7.97,-41.125 -0.51,-0.809 -1.17,-1.739 -1.96,-2.762 -43.89,-63.496 -168.74,-272.812 -167.01,-322.785 26.12,-9.695 113.45,40.734 169.48,99.328 11.45,11.973 30.43,12.391 42.43,0.945 11.97,-11.453 12.38,-30.437 0.93,-42.41 -1.68,-1.758 -171.75,-172.551 -255.34,-101.496 -28.58,24.277 -29.66,72.969 57.96,231.68 8.44,15.273 17.15,30.539 25.77,45.324 -24.4,-10.215 -48.77,-15.734 -69.58,-12.023 l -17.17,3.039 c -2.28,0.398 -4.52,0.8 -6.73,1.191 -21.66,-44.512 -43.56,-81.094 -44.05,-81.855 -81.18,-126.68 -152.67,-162.422 -191.08,-181.622 l -4.21,-2.109 c -40.81,-20.527 -79.74,-30.801 -116.54,-30.801" /><path
         id="path16"
         style="fill:#ffffff;fill-opacity:1;fill-rule:nonzero;stroke:none"
         d="m 2351.82,959.031 c -72.87,0 -138.29,-92.343 -175.22,-178.761 -26.73,-62.508 -23.14,-114.852 -8.51,-137.032 6.24,-9.441 14.31,-13.66 26.2,-13.66 0.01,0 0.01,0 0.01,0 1.88,0 3.83,0.106 5.84,0.32 75.78,8.165 177.45,178.45 186.56,283.399 2.21,25.305 -2.35,40.187 -7.99,41.808 -9.02,2.606 -18.07,3.926 -26.89,3.926 z M 2194.3,569.578 c 0,0 -0.01,0 -0.02,0 -31.9,0 -58.99,14.422 -76.27,40.613 -29.26,44.348 -27.92,120.364 3.42,193.664 27.64,64.688 105.45,215.175 230.39,215.175 14.45,0 29.08,-2.11 43.51,-6.27 21.95,-6.33 57.79,-28.338 51.15,-104.658 -10.56,-121.504 -124.64,-325.45 -239.93,-337.852 -4.23,-0.457 -8.3,-0.672 -12.25,-0.672" /><path
         id="path18"
         style="fill:#ffffff;fill-opacity:1;fill-rule:nonzero;stroke:none"
         d="m 2954.36,1420.32 c -4.46,-2.25 -14.91,-9.33 -31.96,-31.03 -54.43,-69.26 -131.04,-214.27 -189.59,-391.501 12.33,13.831 24.49,27.581 36.43,41.151 120.39,136.99 184.47,243.82 195.9,326.58 0.99,12.13 -3.71,44.29 -10.78,54.8 z m 327.73,-4.02 c -8.61,-7.24 -20.8,-18.83 -37.6,-37.38 -1.82,-2.01 -3.19,-3.5 -4,-4.35 -72.41,-75.1 -134.47,-213.15 -190.74,-351.16 -10.67,-26.117 -21.36,-58.023 -31.46,-92.347 34.95,47.41 70.3,98.577 104.82,149.457 108.26,159.52 126.09,200.13 149.89,291.71 5.16,19.87 7.8,34.07 9.09,44.07 z M 523.645,296.41 c -16.055,0 -29.364,12.711 -29.961,28.891 -0.614,16.558 12.312,30.48 28.867,31.09 102.015,3.781 2488.309,92.191 2614.399,92.191 1.26,0 2.23,-0.023 3.26,-0.023 69.15,0 191.31,38.351 234.54,108.773 20.11,32.781 19.9,67.996 -0.66,107.645 -13.95,26.925 -39.5,36.601 -58.48,39.98 -42.37,7.531 -91.57,-8.602 -128.32,-42.168 -91.49,-83.523 -165.54,-120.437 -220.08,-109.754 -26.41,5.184 -47.37,21.543 -59.01,46.063 -8.98,18.918 -7.8,60.129 -0.76,110.793 -94.28,-93.743 -147.24,-140.567 -214.24,-135.996 -35.88,2.351 -55.82,20.078 -66.23,34.519 -23.12,32.109 -27.59,84.473 -12.71,171.008 -15.25,-16.203 -30.44,-32.188 -45.35,-47.695 -157.34,-163.625 -175.04,-162.715 -192.12,-161.641 -13.2,0.742 -24.59,7.207 -32.08,18.191 -15.18,22.258 -16.41,64.082 26.89,195.871 30.11,91.571 115.47,198.262 119.08,202.762 10.41,12.903 29.28,14.95 42.18,4.563 12.91,-10.383 14.95,-29.258 4.58,-42.168 -0.82,-1.028 -82.17,-102.774 -108.85,-183.899 -20.13,-61.297 -28.54,-97.402 -31.81,-118.406 47.07,40.203 143.1,139.277 243.3,248.32 0.51,1.922 1,3.848 1.52,5.801 61.78,235.199 164.42,437.149 233.62,525.239 13.71,17.44 55.39,70.45 101.87,50.76 53.14,-22.58 47.62,-118.88 47.48,-119.82 -13.08,-94.76 -81.86,-211.86 -210.26,-357.968 -32.34,-36.785 -74.46,-83.855 -119.83,-133.426 -30.81,-122.187 -37.16,-196.972 -18.83,-222.422 3.12,-4.316 8.1,-8.847 21.48,-9.726 42.58,-2.617 85.3,35.906 196.62,147.234 11.02,11.028 22.26,23.059 33.67,35.957 20.14,90.012 47.85,182.774 66.76,229.131 58.55,143.55 123.67,287.74 203.06,370.07 0.52,0.55 1.49,1.63 2.8,3.06 46.68,51.51 84.69,82.03 118.46,63.83 34.91,-18.87 26.68,-71.66 12.56,-125.9 -25.91,-99.74 -47.25,-146.68 -158.31,-310.32 -62.59,-92.273 -128.05,-185.652 -190.1,-257.8 -16.82,-79.364 -26.05,-147.735 -20.05,-164.637 3.32,-6.953 8.37,-10.938 16.17,-12.473 12.31,-2.39 60.85,-2.683 168.05,95.195 50.25,45.86 118.96,67.668 179.31,56.926 45.61,-8.125 81.56,-33.496 101.23,-71.437 30.2,-58.242 29.69,-115.867 -1.48,-166.649 -57.77,-94.136 -203.79,-137.375 -285.78,-137.386 -1.15,-0.008 -2.19,0.023 -3.57,0.023 -124.38,0 -2586.78,-91.223 -2611.757,-92.152 -0.378,-0.008 -0.753,-0.02 -1.128,-0.02" /><path
         id="path20"
         style="fill:#ffffff;fill-opacity:1;fill-rule:nonzero;stroke:none"
         d="m 557.336,4.08984 c -8.289,0 -15,6.71876 -15,14.99996 V 151.25 c 0,6.691 4.434,12.582 10.867,14.422 6.438,1.84 13.313,-0.813 16.856,-6.481 L 638.125,50.1602 703.434,156.5 c 3.523,5.73 10.429,8.422 16.894,6.57 6.469,-1.84 10.922,-7.769 10.887,-14.492 L 730.598,19.0195 c -0.039,-8.2578 -6.75,-14.92966 -15,-14.92966 -0.028,0 -0.051,0 -0.075,0 -8.281,0.03907 -14.964,6.78906 -14.925,15.07036 l 0.363,75.9804 -49.949,-81.3203 c -2.719,-4.42967 -7.535,-7.12889 -12.731,-7.14842 -0.015,0 -0.035,0 -0.054,0 -5.176,0 -9.985,2.66015 -12.723,7.05862 L 572.336,98.8906 V 19.0898 c 0,-8.2812 -6.715,-14.99996 -15,-14.99996" /><path
         id="path22"
         style="fill:#ffffff;fill-opacity:1;fill-rule:nonzero;stroke:none"
         d="m 1117.42,0 c -24.38,0 -47.69,3.51953 -60.53,11.4883 -12.92,8.0312 -14.39,18.7109 -14.11,24.3828 2.63,54.2891 2.06,112.0509 2.05,112.6169 -0.08,8.282 6.57,15.071 14.85,15.16 8.59,0.133 15.07,-6.558 15.15,-14.839 0.01,-0.579 0.57,-57.559 -1.98,-112.059 14.27,-10.3203 89.6,-7.8906 106.73,3.25 -0.01,51.1094 -0.45,108.531 -0.45,108.531 l 30,0.239 c 0,0 0.45,-60.4106 0.45,-112.52 0,-6.2383 -2.66,-15.1719 -15.34,-22.2187 C 1178.43,5.23047 1147.13,0 1117.42,0" /><path
         id="path24"
         style="fill:#ffffff;fill-opacity:1;fill-rule:nonzero;stroke:none"
         d="m 1512.88,96.1094 c 37.13,-0.6797 106.64,-0.6875 107.41,-0.6875 15.31,0.6367 23.53,13.6371 23.35,22.7691 -0.3,13.957 -18.41,15.457 -26.18,15.457 h -104.58 z m -15,-92.01956 c -8.29,0 -15,6.71876 -15,14.99996 V 148.648 c 0,8.282 6.71,15 15,15 h 119.58 c 38.16,0 55.7,-22.519 56.17,-44.839 0.51,-24.5902 -19.5,-52.0004 -52.72,-53.3793 -3.69,0 -70.73,-0.0078 -108.03,0.6719 V 19.0898 c 0,-8.2812 -6.71,-14.99996 -15,-14.99996" /><path
         id="path26"
         style="fill:#ffffff;fill-opacity:1;fill-rule:nonzero;stroke:none"
         d="m 1655.61,0.160156 c -9.57,0 -19.59,3.691404 -25.96,13.101544 -2.32,3.418 -4.18,7.8164 -6.52,13.3867 -8.31,19.7227 -17.23,37.4727 -34.89,37.8321 -8.28,0.1797 -14.86,7.0312 -14.69,15.3086 0.17,8.1797 6.86,14.6914 14.99,14.6914 0.11,0 0.21,0 0.32,0 38.6,-0.8008 54.35,-38.211 61.92,-56.1914 1.26,-2.9805 2.98,-7.0703 3.71,-8.2071 0.33,-0.1132 2.43,0.1172 3.72,0.5469 7.77,2.543 16.29,-1.5703 18.97,-9.2891 2.69,-7.7187 -1.16,-16.12105 -8.83,-18.94136 -3.86,-1.42969 -8.25,-2.238284 -12.74,-2.238284" /><path
         id="path28"
         style="fill:#ffffff;fill-opacity:1;fill-rule:nonzero;stroke:none"
         d="m 2018.87,4.08984 c -2.54,0 -5.11,0.64063 -7.46,1.98829 -7.19,4.13277 -9.67,13.29297 -5.54,20.48047 l 74.42,129.5624 c 2.58,4.5 7.33,7.348 12.52,7.52 5.28,0.379 10.1,-2.36 12.98,-6.692 l 84.39,-126.9802 c 4.59,-6.8985 2.71,-16.2071 -4.19,-20.78911 -6.91,-4.58985 -16.21,-2.71094 -20.79,4.19141 L 2094.22,120.148 2031.88,11.6211 c -2.77,-4.83204 -7.82,-7.53126 -13.01,-7.53126" /><path
         id="path30"
         style="fill:#ffffff;fill-opacity:1;fill-rule:nonzero;stroke:none"
         d="m 2145.05,35.1797 h -96.63 c -8.28,0 -15,6.7187 -15,15 0,8.2812 6.72,15 15,15 h 96.63 c 8.29,0 15,-6.7188 15,-15 0,-8.2813 -6.71,-15 -15,-15" /><path
         id="path32"
         style="fill:#ffffff;fill-opacity:1;fill-rule:nonzero;stroke:none"
         d="m 2615.02,4.08984 h -100.54 c -8.29,0 -15,6.71876 -15,14.99996 V 144.738 c 0,8.282 6.71,15 15,15 8.29,0 15,-6.718 15,-15 V 34.0898 h 85.54 c 8.29,0 15,-6.7187 15,-15 0,-8.2812 -6.71,-14.99996 -15,-14.99996" /><path
         id="path34"
         style="fill:#ffffff;fill-opacity:1;fill-rule:nonzero;stroke:none"
         d="m 3045.55,4.05078 c -1.12,0 -2.15,0.01953 -3.11,0.05078 -34.28,1.00782 -63.63,19.88674 -64.86,20.68754 -6.94,4.5195 -8.91,13.8125 -4.38,20.75 4.51,6.9492 13.82,8.9218 20.75,4.3906 0.21,-0.1289 23.71,-15.0781 49.41,-15.8477 23.36,-0.6328 52.03,7.4375 54.77,13.7578 0.29,1.6094 0.03,2.8204 -0.98,4.3086 -3.56,5.1602 -15.69,12.1602 -39.06,16.3125 -5.74,1.0196 -11.31,1.7891 -16.63,2.5196 -24.76,3.4414 -52.83,7.3281 -60.1,36.7385 -2.98,12.07 -0.46,24.031 7.1,33.679 12.46,15.891 38.22,25.012 70.68,25.012 41.19,0 59.36,-20.922 63.6,-33.289 2.69,-7.832 -1.48,-16.371 -9.32,-19.051 -7.67,-2.66 -16.01,1.309 -18.88,8.84 -0.55,1.149 -7.1,13.5 -35.4,13.5 -26.91,0 -42.18,-7.269 -47.06,-13.512 -1.92,-2.457 -2.39,-4.777 -1.59,-7.976 2.07,-8.41 9.75,-10.703 35.09,-14.223 5.67,-0.7888 11.63,-1.617 17.74,-2.699 20.12,-3.5703 46.6,-11.4687 58.56,-28.8711 5.56,-8.1094 7.51,-17.4883 5.65,-27.1406 -6.08,-31.3789 -59.6,-37.93752 -81.98,-37.93752" /><path
         id="path36"
         style="fill:#ffffff;fill-opacity:1;fill-rule:nonzero;stroke:none"
         d="m 437.777,1108.78 c 9.868,-4.21 20.289,-5.82 31.203,-3.89 36.211,6.38 51.098,18.89 52.958,28.47 1.64,8.43 -4.633,18.93 -11.293,23.09 -1.598,0.99 -8.809,3.01 -20.61,-0.7 -9.836,-3.08 -32.238,-13.48 -52.258,-46.97 z m 63.618,-566.721 c -3.407,0 -6.778,0.078 -10.184,0.234 -108.59,5.008 -182.219,39.492 -218.844,102.488 -73.25,125.977 25.824,320.371 79.055,424.819 3.898,7.65 7.562,14.84 10.758,21.24 -41.793,44.21 -67.617,108.41 -80.793,141.17 -2.356,5.85 -4.789,11.9 -5.813,13.95 -7.406,14.83 -1.39,32.84 13.43,40.25 14.844,7.4 32.848,1.38 40.242,-13.43 2.109,-4.22 4.5,-10.15 7.809,-18.38 8.957,-22.26 28.136,-69.94 54.98,-105.65 28.047,42.13 60.692,58.19 80.055,64.25 25.906,8.13 51.566,6.06 70.348,-5.66 23.625,-14.77 45.722,-47.8 38.398,-85.45 -4.383,-22.52 -23.387,-62.34 -101.441,-76.08 -25.372,-4.49 -48.118,-0.67 -68.364,8.64 -1.937,-3.84 -3.996,-7.86 -6.152,-12.1 -44.621,-87.537 -137.457,-269.705 -80.645,-367.412 25.723,-44.239 82.832,-68.7 169.743,-72.704 2.589,-0.117 5.183,-0.187 7.781,-0.187 212.18,0 442.203,395.226 457.871,580.093 11,129.78 -35.305,215.06 -130.371,240.13 -104.285,27.51 -228.594,-27.98 -271.461,-121.16 -6.922,-15.05 -24.727,-21.65 -39.793,-14.72 -15.055,6.93 -21.641,24.75 -14.719,39.8 54.289,118.01 210.563,188.55 341.278,154.1 122.832,-32.39 188.197,-145.74 174.847,-303.2 C 1001.34,963.785 751.82,542.105 501.395,542.059" /><path
         id="path38"
         style="fill:#f78d1c;fill-opacity:1;fill-rule:nonzero;stroke:none"
         d="M 512.188,425.988 0,504.137 191.746,175.469 l 312.02,115.66 8.422,134.859" /><path
         id="path40"
         style="fill:#ffffff;fill-opacity:1;fill-rule:nonzero;stroke:none"
         d="m 581.031,412.09 2507.129,5.551 c 53.38,0 78.99,-4.789 89.2,5.578 l -13.94,-5.578 c 0,0 -17.32,-6.661 -100.92,-9.411 L 585.723,307.191 c -53.352,0 -56.231,1.911 -55.325,62.34 0.305,20.731 8.395,45.809 50.633,42.559" /><path
         id="path42"
         style="fill:#ffffff;fill-opacity:1;fill-rule:nonzero;stroke:none"
         d="m 560.914,337.84 c 6.606,-0.629 17.379,-0.649 24.199,-0.649 l 1163.957,47.481 -1169.16,-2.582 -1.183,0.082 c -1.707,0.129 -3.329,0.199 -4.872,0.199 -11.902,0 -13.285,-1.371 -13.46,-13.281 -0.118,-8.02 -0.34,-22.961 0.519,-31.25 z m 25.418,-60.649 h -0.609 c -29.168,0 -52.207,0 -68.883,16.93 -17.313,17.578 -16.93,43.301 -16.434,75.859 0.649,44.649 28.793,72.391 73.449,72.391 2.625,0 5.36,-0.09 8.219,-0.281 l 2506.036,5.551 c 15.09,0 27.97,-0.371 38.97,-0.68 11.94,-0.34 22.14,-0.602 28.31,-0.223 l 10.82,4.332 32.52,-48.898 c -7.64,-7.762 -17.74,-12.5 -30.84,-14.434 -11.56,-2.847 -39.52,-7.347 -104.4,-9.488 L 586.332,277.191" /><path
         id="path44"
         style="fill:#f78d1c;fill-opacity:1;fill-rule:nonzero;stroke:none"
         d="m 922.934,88.6484 c 0,-19.789 -16.036,-35.8281 -35.829,-35.8281 -19.781,0 -35.804,16.0391 -35.804,35.8281 0,19.7736 16.023,35.8206 35.804,35.8206 19.793,0 35.829,-16.047 35.829,-35.8206" /><path
         id="path46"
         style="fill:#f78d1c;fill-opacity:1;fill-rule:nonzero;stroke:none"
         d="m 1374.55,88.6484 c 0,-19.789 -16.04,-35.8281 -35.82,-35.8281 -19.78,0 -35.82,16.0391 -35.82,35.8281 0,19.7736 16.04,35.8206 35.82,35.8206 19.78,0 35.82,-16.047 35.82,-35.8206" /><path
         id="path48"
         style="fill:#f78d1c;fill-opacity:1;fill-rule:nonzero;stroke:none"
         d="m 1893.96,88.6484 c 0,-19.789 -16.03,-35.8281 -35.81,-35.8281 -19.79,0 -35.82,16.0391 -35.82,35.8281 0,19.7736 16.03,35.8206 35.82,35.8206 19.78,0 35.81,-16.047 35.81,-35.8206" /><path
         id="path50"
         style="fill:#f78d1c;fill-opacity:1;fill-rule:nonzero;stroke:none"
         d="m 2361.84,88.6484 c 0,-19.789 -16.04,-35.8281 -35.82,-35.8281 -19.8,0 -35.82,16.0391 -35.82,35.8281 0,19.7736 16.02,35.8206 35.82,35.8206 19.78,0 35.82,-16.047 35.82,-35.8206" /><path
         id="path52"
         style="fill:#f78d1c;fill-opacity:1;fill-rule:nonzero;stroke:none"
         d="m 2829.69,88.6484 c 0,-19.789 -16.04,-35.8281 -35.81,-35.8281 -19.79,0 -35.82,16.0391 -35.82,35.8281 0,19.7736 16.03,35.8206 35.82,35.8206 19.77,0 35.81,-16.047 35.81,-35.8206" /></g></g></svg>